Patient4_TMGait_0pt7_02_right_27_EMG.mot
version=1
nRows=30
nColumns=33
inDegrees=no
endheader
time	1LAddLong	2LGlutMax	3LGlutMed	4LIliopsoas	5LSemiMemb	6LBicFemLong	7LRecFem	8LVastMed	9LVastLat	10LGasMed	11LTibAnt	12lTibPost	13LPeroneusLong	14LSol	15LExtDigLong	16LFlexDigLong	17RAddLong	18RGlutMax	19RGlutMed	20RIliopsoas	21RSemiMemb	22RBicFemLong	23RRecFem	24RVastMed	25RVastLat	26RGasMed	27RTibAnt	28RTibPost	29RPeroneusLong	30RSol	31RExtDigLong	32RFlexDigLong
31.01	0.023956	0.44723	0.027924	0.014801	0.081177	-0.15778	-0.038605	0.003815	0.036621	-0.016632	0.012512	-0.001984	0.092621	-0.018005	-0.24109	-0.014038	0.009613	-0.046844	0.52734	0.051575	0.028076	-0.067444	-0.63568	0.004883	-0.009308	-0.001373	-0.093689	-0.005341	-0.23682	-0.030365	0.001068	-0.003052
31.011	0.011902	0.41214	-0.019531	0.024414	-0.030365	-0.28198	0.036926	-0.008392	0.20645	-0.019836	0.053864	-0.002136	0.12299	-0.021362	-0.21683	-0.010071	0.019684	-0.011749	0.23239	0.036621	0.028839	-0.059967	-0.64209	0.018921	-0.001678	-0.012512	0.052643	-0.003204	-0.22308	-0.029755	0.000458	-0.022583
31.012	-0.003815	0.43228	0.02594	0.004425	-0.11169	-0.34759	0.019531	-0.010223	0.18646	-0.015259	0.12314	-0.00412	0.18814	0.038757	-0.039978	0.001373	0.02243	0.052032	0.13229	0.042114	0.038605	-0.057983	-0.61417	-0.009003	-0.001068	-0.00824	0.10346	-0.002594	-0.18448	-0.011292	-0.000763	-0.019989
31.013	0.025024	0.44723	0.08255	0.016174	-0.11246	-0.24445	-0.099487	-0.035095	0.049896	-0.00946	0.071106	-0.005493	0.16495	0.061493	-0.012512	-0.006714	0.044098	0.085907	0.032501	0.089417	0.04776	-0.05661	-0.59921	0.002594	-0.019226	-0.00412	0.18921	-0.003204	-0.009613	-0.032806	0.001373	-0.024109
31.014	0.027313	0.4335	0.066681	-0.002747	-0.045624	-0.000305	-0.02594	-0.03418	-0.11887	0.009003	-0.032806	0.003357	-0.18784	0.029755	-0.034027	-0.007019	0.010223	0.04776	0.18616	0.042572	0.016632	-0.047302	-0.56488	-0.034332	-0.015259	-0.003662	0.21027	-0.00061	0.27664	-0.089722	0.002747	-0.022583
31.015	0.002136	0.42099	0.053711	0.017853	0.051575	0.11337	0.048676	-0.003815	-0.2066	0.003815	-0.029297	-0.004578	-0.07309	-0.041962	-0.085907	-0.018616	0.011749	0.10727	0.42297	-0.0737	-0.005493	-0.04425	-0.57175	-0.053253	-0.030975	-0.005646	0.13931	-0.002899	0.011749	-0.1004	0.005798	-0.02243
31.016	-0.023651	0.45883	0.045013	0.017853	-0.019226	0.10468	0.033112	0.015106	-0.2536	-0.003052	-0.032349	-0.000763	0.27206	0.007935	0.1767	-0.014038	-0.003357	0.08606	0.30579	-0.15152	-0.015564	0.031586	-0.63675	-0.071716	-0.02594	-0.001984	0.036926	-0.009613	-0.35263	-0.067139	-0.003967	-0.018616
31.017	-0.046082	0.4303	0.010223	0.009613	-0.15991	0.21088	0.086212	0.027008	-0.26093	0.010834	-0.03952	-0.001373	0.39414	0.011139	0.15045	0.000763	-0.015717	0.072174	0.20309	-0.1413	-0.014954	0.050507	-0.54611	-0.067902	-0.02121	-0.003815	0.021973	-0.007019	-0.70374	-0.032806	0.003662	-0.023499
31.018	-0.052185	0.41138	0.015717	-0.007324	-0.11932	0.19684	0.056763	0.02243	-0.051575	0.023346	-0.016937	-0.006256	-0.062714	-0.039825	0.079346	-0.016022	0.024261	0.077362	0.22003	-0.10071	0.022888	0.075531	-0.50919	-0.050507	-0.044098	-0.003052	0.044861	0.001984	-0.87494	-0.019989	-0.000458	-0.022736
31.019	-0.040436	0.3891	0.005035	0.007172	-0.12329	0.013428	0.072632	0.021973	0.13153	0.016937	0.009308	0.011139	-0.1001	-0.035095	-0.063934	-0.010834	0.067444	0.080261	0.14191	-0.057983	0.052338	0.033417	-0.50217	-0.070038	-0.041962	-0.003662	-0.016327	-0.007935	-0.17136	-0.022583	0.003357	-0.0177
31.02	-0.002136	0.36804	-0.006866	0.00351	-0.08316	-0.32867	0.093231	0.013428	0.31143	-0.001526	0.039673	-0.041809	-0.021362	0.001678	-0.07782	0	0.10864	0.061035	0.15503	0.029755	0.049438	0.010681	-0.51376	-0.066223	-0.055389	0.001984	0.025177	-0.004425	0.45212	-0.009003	0.001678	-0.018311
31.021	0.009918	0.36499	-0.023804	0.012665	0.10407	-0.65338	0.13321	-0.014801	0.29678	-0.016174	0.022888	0.002747	0.23132	0.034637	-0.002747	-0.003662	0.11276	0.084229	0.025787	0.089722	0.081635	-0.005951	-0.54062	-0.006714	-0.033264	0.006714	0.074921	-0.005341	0.34653	-0.024872	0.003204	-0.02594
31.022	0.024414	0.36316	-0.037079	0.00473	0.21515	-0.48721	0.14771	-0.088196	0.22232	-0.007019	0.011139	0.004272	0.13031	0.024261	0.004578	-0.003815	0.10605	0.10513	0.29511	0.013123	0.10391	-0.04364	-0.51773	0.007477	-0.021057	0.013885	0.11688	-0.002136	0.16663	-0.004578	0.001984	-0.02121
31.023	0.033264	0.31403	-0.031891	-0.00351	0.15717	-0.2446	0.23987	-0.006256	0.16007	0.009155	0.023804	-0.003357	-0.11765	-0.007782	-0.016785	0.003052	0.065155	0.084229	0.62103	0.025177	0.1442	-0.055084	-0.50812	-0.001068	0.008545	0.012054	0.054474	-0.005035	-0.097198	-0.021973	0.000763	-0.015564
31.024	0.031128	0.34103	-0.063019	-0.002289	0.13504	-0.12421	0.19608	-0.005798	-0.00824	0.016632	0.016327	0.000763	-0.1471	-0.02182	-0.01358	0.009308	0.015869	0.033112	0.29923	0.10056	0.14526	-0.043182	-0.54123	0.023956	-0.018616	0.001831	0.11795	-0.003204	0.024414	-0.026855	-0.000305	-0.015106
31.025	0.024261	0.34485	-0.13916	0.002747	0.09552	-0.065002	0.13748	0.019989	-0.12177	0.02243	0.016479	0.005798	-0.14236	-0.018005	-0.034485	0.00824	-0.027771	0.02121	0.038605	-0.043335	0.14465	-0.03067	-0.57342	0.045776	-0.0177	0.00824	0.10132	-0.008545	-0.082092	-0.04425	0	-0.019073
31.026	0.015106	0.38711	-0.17639	-0.005341	0.079193	-0.045013	0.077057	0.038147	-0.26352	0.019684	0.027161	0.002899	-0.062408	-0.012207	0.004883	0.007019	-0.055847	0.024109	0.32852	-0.35812	0.13428	-0.007629	-0.64636	0.002594	-0.024872	0.007935	0.092926	-0.001373	0.1799	-0.11093	0.002136	-0.018311
31.027	0.005493	0.29984	-0.061035	0.010834	0.056458	0.005341	0.032501	0.044708	-0.34882	0.029144	-0.014191	0.011902	-0.003052	-0.016785	0.056763	0.002899	-0.046082	0.004272	0.60837	-0.43274	0.13794	-0.018005	-0.54367	0.020599	-0.012207	0.000153	0.084534	-0.012054	0.58945	-0.12512	0.00061	-0.017548
31.028	-0.003204	0.29388	0.00824	0.008392	0.003815	0.082092	0.025787	0.05127	-0.2095	0.015411	-0.021515	0.01236	-0.054626	-0.033722	0.042419	0.016174	-0.028381	0.004425	0.39642	-0.14221	0.12741	-0.026093	-0.54489	0.050354	-0.029144	-0.003967	0.10788	-0.007782	-0.18005	-0.22736	0.001831	-0.027313
31.029	-0.035858	0.26337	0.04776	0.006561	-0.049133	0.20172	0.085907	0.046692	-0.10986	0.011902	-0.002899	0.016174	-0.067596	-0.04776	0.031128	0.012665	-0.009155	-0.00061	0.84549	0.14664	0.13245	-0.040283	-0.53406	0.037842	-0.030365	0.011292	0.11108	-0.016022	-0.067444	-0.22888	-0.002747	-0.029144
31.03	-0.063324	0.21545	-0.012512	0.014801	-0.12695	0.26337	0.079498	0.058746	-0.032349	0.010986	0.04303	0.011597	-0.050507	-0.062408	0.017548	0.023346	0.008392	-0.063782	0.33646	0.23117	0.09552	-0.075836	-0.55466	0.05249	-0.043182	0.035248	0.092926	-0.010986	0.16678	-0.040588	0.002136	-0.027466
31.031	-0.089417	0.1442	-0.028229	0.017242	-0.15533	0.22232	0.21286	0.036926	-0.11185	0.042419	-0.037231	0.023041	0.028534	-0.054474	-0.014191	0.014496	0.01358	-0.091095	0.26199	0.28305	0.072632	-0.087891	-0.60852	0.002594	-0.033569	0.034027	0.079651	-0.003357	-0.16235	0.14221	0.000916	-0.027161
31.032	-0.076294	0.14481	-0.014648	-0.002441	-0.16602	0.12848	0.28412	0.006409	-0.33844	0.079346	0.021362	0.022736	0.051117	-0.029449	-0.025177	0.022736	0.016479	-0.13489	0.32211	0.2063	0.045624	-0.10727	-0.55191	-0.046844	-0.049744	0.019073	0.088806	0.003052	-0.53635	0.095978	0.000916	-0.032043
31.033	-0.020752	0.098267	0.042419	-0.006409	-0.045929	0.12512	0.30701	-0.003357	-0.37979	0.11047	0.052338	0.021973	-0.013123	-0.03067	-0.00412	0.02243	-0.024872	-0.037842	0.37842	0.049744	0.049133	-0.11292	-0.55542	-0.026703	-0.056152	0.000153	0.071259	-0.040894	-0.93109	-0.1413	0.001831	-0.026855
31.034	0.008545	0.016174	-0.010223	0.012665	0.046844	0.13794	0.36148	0.000916	-0.3125	0.11002	0.034943	0.020599	-0.016632	-0.023499	-0.022583	0.02182	-0.038605	-0.08667	0.551	-0.018158	0.032501	-0.086823	-0.56076	-0.043945	-0.052185	-0.002899	0.025482	-0.053711	-0.85663	-0.39002	-0.000305	-0.03067
31.035	0.027771	-0.027313	-0.064545	0.016327	0.003204	0.15823	0.36529	0.010376	-0.26154	0.11398	0.018311	0.026245	-0.030365	-0.033112	-0.059204	0.031738	-0.032654	-0.13016	0.36331	0.01236	0.044403	-0.044098	-0.54703	-0.061035	-0.035858	-0.025024	-0.014343	-0.19226	0.29007	-0.028534	-0.000305	-0.024109
31.036	0.029907	-0.020905	-0.044098	0.017548	0.027771	0.16235	0.36331	0.015564	-0.14099	0.10254	0.01236	0.02243	-0.014191	-0.02655	-0.062714	0.067749	-0.03891	-0.19089	0.27863	-0.047302	0.050507	-0.040894	-0.53177	-0.038757	-0.023804	-0.039215	-0.004272	-0.13153	0.23972	0.41367	0.008545	-0.019531
31.037	0.025482	-0.051727	-0.061188	0.019989	0.10925	0.49454	0.36072	0.001221	-0.071106	0.096436	0.037537	0.024567	0.013428	-0.001678	-0.002136	0.083618	-0.037231	-0.17151	0.14328	-0.03006	0.064545	-0.001221	-0.51376	-0.034637	-0.021362	-0.031738	-0.037537	0.20645	0.24262	0.55496	-0.00061	-0.004425
31.038	0.03479	-0.090485	-0.17288	0.00473	0.073242	0.49103	0.27664	-0.015106	0.073242	0.090027	0.034332	0.018616	0.009308	0.025787	0.10239	0.1001	-0.030823	-0.15366	0.19211	0.05127	0.096893	0.018616	-0.51285	-0.037994	-0.013428	-0.036316	-0.007782	-0.31189	1.0152	0.30228	0.000916	-0.013275
31.039	0.049744	-0.068512	-0.31784	0.008698	0.017853	0.13428	0.21332	-0.032043	-0.010223	0.040131	0.001678	0.022888	0.061646	0.059814	0.088348	0.112	-0.013428	-0.1828	0.35065	0.12024	0.13123	-0.039673	-0.48019	-0.061646	-0.020599	-0.030518	0.045319	0.044708	1.4478	0.34683	0.000458	-0.02121
